<svg width="100" height="100" viewBox="0 0 100 100" fill="none" xmlns="http://www.w3.org/2000/svg">
<path d="M50 91.6666C73.0125 91.6666 91.6667 73.0124 91.6667 49.9999C91.6667 26.9874 73.0125 8.33325 50 8.33325C26.9875 8.33325 8.33333 26.9874 8.33333 49.9999C8.33333 73.0124 26.9875 91.6666 50 91.6666Z" stroke="black" stroke-width="1.5" stroke-linecap="round" stroke-linejoin="round"/>
<path d="M33.3333 12.5H37.5C29.3751 36.8399 29.3751 63.1601 37.5 87.5H33.3333M62.5 12.5C70.6249 36.8399 70.6249 63.1601 62.5 87.5" stroke="black" stroke-width="1.5" stroke-linecap="round" stroke-linejoin="round"/>
<path d="M12.5 66.6666V62.4999C36.8399 70.6248 63.1601 70.6248 87.5 62.4999V66.6666M12.5 37.4999C36.8399 29.375 63.1601 29.375 87.5 37.4999" stroke="black" stroke-width="1.5" stroke-linecap="round" stroke-linejoin="round"/>
</svg>
