<svg width="100" height="100" viewBox="0 0 100 100" fill="none" xmlns="http://www.w3.org/2000/svg">
<path d="M50 58.3333H54.1666C58.75 58.3333 62.5 54.5833 62.5 49.9999V8.33325H25C18.75 8.33325 13.2916 11.7916 10.4583 16.8749" stroke="black" stroke-width="1.5" stroke-linecap="round" stroke-linejoin="round"/>
<path d="M8.33331 70.8333C8.33331 77.7499 13.9166 83.3332 20.8333 83.3332H25C25 78.7499 28.75 74.9999 33.3333 74.9999C37.9166 74.9999 41.6666 78.7499 41.6666 83.3332H58.3333C58.3333 78.7499 62.0833 74.9999 66.6666 74.9999C71.25 74.9999 75 78.7499 75 83.3332H79.1666C86.0833 83.3332 91.6666 77.7499 91.6666 70.8333V58.3333H79.1666C76.875 58.3333 75 56.4583 75 54.1666V41.6666C75 39.3749 76.875 37.4999 79.1666 37.4999H84.5416L77.4166 25.0416C76.6825 23.7667 75.6265 22.7069 74.3541 21.9684C73.0818 21.2298 71.6378 20.8384 70.1666 20.8333H62.5V49.9999C62.5 54.5833 58.75 58.3333 54.1666 58.3333H50" stroke="black" stroke-width="1.5" stroke-linecap="round" stroke-linejoin="round"/>
<path d="M8.33331 33.3333H33.3333M8.33331 45.8333H25M8.33331 58.3333H16.6666M33.3333 91.6666C35.5434 91.6666 37.6631 90.7886 39.2259 89.2258C40.7887 87.663 41.6666 85.5434 41.6666 83.3333C41.6666 81.1231 40.7887 79.0035 39.2259 77.4407C37.6631 75.8779 35.5434 74.9999 33.3333 74.9999C31.1232 74.9999 29.0036 75.8779 27.4408 77.4407C25.878 79.0035 25 81.1231 25 83.3333C25 85.5434 25.878 87.663 27.4408 89.2258C29.0036 90.7886 31.1232 91.6666 33.3333 91.6666V91.6666ZM66.6666 91.6666C68.8768 91.6666 70.9964 90.7886 72.5592 89.2258C74.122 87.663 75 85.5434 75 83.3333C75 81.1231 74.122 79.0035 72.5592 77.4407C70.9964 75.8779 68.8768 74.9999 66.6666 74.9999C64.4565 74.9999 62.3369 75.8779 60.7741 77.4407C59.2113 79.0035 58.3333 81.1231 58.3333 83.3333C58.3333 85.5434 59.2113 87.663 60.7741 89.2258C62.3369 90.7886 64.4565 91.6666 66.6666 91.6666ZM91.6666 49.9999V58.3333H79.1666C76.875 58.3333 75 56.4583 75 54.1666V41.6666C75 39.3749 76.875 37.4999 79.1666 37.4999H84.5416L91.6666 49.9999Z" stroke="black" stroke-width="1.5" stroke-linecap="round" stroke-linejoin="round"/>
</svg>
